<svg xmlns="http://www.w3.org/2000/svg" viewBox="0 0 64 64" width="64" height="64">
<!-- Anastasia (Re:Zero) chibi v3 - Break Time tarzindan esinlenen ozgun cizim (sistem-bakim) -->
<defs><linearGradient id="ianastasia" x1="0" y1="0" x2="0" y2="1"><stop offset="0" stop-color="#22918F"/><stop offset="1" stop-color="#79DCD3"/></linearGradient></defs><path d="M10 31 Q4 42 10 50 Q5 56 12 63 L23 63 Q17 48 19 34 Z" fill="#C9B4EC" stroke="#1B1724" stroke-width="1" stroke-linejoin="round"/><path d="M54 31 Q60 42 54 50 Q59 56 52 63 L41 63 Q47 48 45 34 Z" fill="#C9B4EC" stroke="#1B1724" stroke-width="1" stroke-linejoin="round"/><path d="M17 64 Q18 54.6 32 53 Q46 54.6 47 64 Z" fill="#FFFFFF" stroke="#1B1724" stroke-width="1" stroke-linejoin="round"/><path d="M13 54 Q32 63.4 51 54 Q51.4 61 32 64 Q12.6 61 13 54 Z" fill="#FFFFFF" stroke="#1B1724" stroke-width="1" stroke-linejoin="round"/><path d="M46 53 L52.4 46 L53 54.4 Z" fill="#FFFFFF" stroke="#1B1724" stroke-width="1" stroke-linejoin="round"/><path d="M49 51.4 L51.6 48.6" stroke="#F2B8C6" stroke-width="0.9"/><circle cx="49" cy="55" r="0.9" fill="#1B1724"/><ellipse cx="32" cy="36" rx="19" ry="17" fill="#FFEEE4" stroke="#1B1724" stroke-width="1"/><ellipse cx="19.4" cy="45" rx="3.2" ry="1.7" fill="#FF97B0" opacity="0.5"/><ellipse cx="44.6" cy="45" rx="3.2" ry="1.7" fill="#FF97B0" opacity="0.5"/><path d="M30 47.4 Q32 49.2 34 47.4" stroke="#A9506A" stroke-width="1.3" fill="none" stroke-linecap="round"/><path d="M13 33 Q13 11 32 10 Q51 11 51 33 Q46 22 40 24 Q37 19 32 25 Q27 19 24 24 Q18 22 13 33 Z" fill="#C9B4EC" stroke="#1B1724" stroke-width="1" stroke-linejoin="round"/><path d="M22 24 L24.6 31 M42 24 L39.4 31" stroke="#9C84CC" stroke-width="1.1" stroke-linecap="round"/><ellipse cx="23.6" cy="38.4" rx="5" ry="6.3" fill="#FFFFFF" stroke="#1B1724" stroke-width="0.6"/><ellipse cx="23.6" cy="38.8" rx="4.6" ry="5.8" fill="url(#ianastasia)"/><ellipse cx="23.6" cy="39.4" rx="1.9" ry="2.8" fill="#1B1724" opacity="0.8"/><ellipse cx="25.3" cy="36.0" rx="1.7" ry="1.9" fill="#FFFFFF"/><circle cx="22.0" cy="41.4" r="0.75" fill="#FFFFFF" opacity="0.9"/><path d="M18.0 35.0 Q23.6 29.799999999999997 29.200000000000003 35.0" stroke="#1B1724" stroke-width="2" fill="none" stroke-linecap="round"/><ellipse cx="40.4" cy="38.4" rx="5" ry="6.3" fill="#FFFFFF" stroke="#1B1724" stroke-width="0.6"/><ellipse cx="40.4" cy="38.8" rx="4.6" ry="5.8" fill="url(#ianastasia)"/><ellipse cx="40.4" cy="39.4" rx="1.9" ry="2.8" fill="#1B1724" opacity="0.8"/><ellipse cx="42.1" cy="36.0" rx="1.7" ry="1.9" fill="#FFFFFF"/><circle cx="38.8" cy="41.4" r="0.75" fill="#FFFFFF" opacity="0.9"/><path d="M34.8 35.0 Q40.4 29.799999999999997 46.0 35.0" stroke="#1B1724" stroke-width="2" fill="none" stroke-linecap="round"/><path d="M14 18 Q10 14 14 11 Q14 5 21 6 Q24 1.6 30 3.6 Q35 0.6 40 3.6 Q46 2.4 48 7.6 Q54 9.4 51.4 14.4 Q53.6 18 49.6 19.2 Q32 13.4 14 18 Z" fill="#FFFFFF" stroke="#1B1724" stroke-width="1" stroke-linejoin="round"/><path d="M20 10.4 Q22.4 8.6 25 10 M30 7.4 Q32.6 5.8 35 7.4 M39.6 9 Q42 7.6 44.4 9.4" stroke="#D6D0E0" stroke-width="0.9" fill="none" stroke-linecap="round"/><path d="M45 22 L46.2 24.6 L49 24.8 L46.8 26.6 L47.6 29.4 L45 27.8 L42.4 29.4 L43.2 26.6 L41 24.8 L43.8 24.6 Z" fill="#F2C94C" stroke="#1B1724" stroke-width="1" stroke-linejoin="round"/>
</svg>