<svg xmlns="http://www.w3.org/2000/svg" viewBox="0 0 64 64" width="64" height="64">
<!-- Rem (Re:Zero) chibi v3 - Break Time tarzindan esinlenen ozgun cizim (sistem-bakim) -->
<defs><linearGradient id="irem" x1="0" y1="0" x2="0" y2="1"><stop offset="0" stop-color="#3C78D2"/><stop offset="1" stop-color="#A6D0FF"/></linearGradient></defs><path d="M12.4 42 Q11 24 18 17 L20 36 Z" fill="#86B9F0" stroke="#1B1724" stroke-width="1" stroke-linejoin="round"/><path d="M51.6 42 Q53 24 46 17 L44 36 Z" fill="#86B9F0" stroke="#1B1724" stroke-width="1" stroke-linejoin="round"/><path d="M17 64 Q18 54.6 32 53 Q46 54.6 47 64 Z" fill="#23243A" stroke="#1B1724" stroke-width="1" stroke-linejoin="round"/><path d="M25 53.6 L32 60.4 L39 53.6" fill="#FFFFFF" stroke="#1B1724" stroke-width="1" stroke-linejoin="round"/><circle cx="32" cy="57" r="1.3" fill="#C8507D"/><ellipse cx="32" cy="36" rx="19" ry="17" fill="#FFEEE4" stroke="#1B1724" stroke-width="1"/><ellipse cx="19.4" cy="45" rx="3.2" ry="1.7" fill="#FF97B0" opacity="0.5"/><ellipse cx="44.6" cy="45" rx="3.2" ry="1.7" fill="#FF97B0" opacity="0.5"/><path d="M30 47.4 Q32 49.2 34 47.4" stroke="#A9506A" stroke-width="1.3" fill="none" stroke-linecap="round"/><path d="M18.400000000000002 38.4 Q23.6 42.0 28.8 38.4" stroke="#1B1724" stroke-width="2" fill="none" stroke-linecap="round"/><path d="M35.199999999999996 38.4 Q40.4 42.0 45.6 38.4" stroke="#1B1724" stroke-width="2" fill="none" stroke-linecap="round"/><path d="M13 30 Q13 10.6 32 10 Q51 10.6 51 30 Q47 21 41 22 Q36 20 32 23 Q28 20 23 22 Q17 21 13 30 Z" fill="#86B9F0" stroke="#1B1724" stroke-width="1" stroke-linejoin="round"/><path d="M34 20 Q20 21 14.4 38 Q18 34 20.6 31.4 Q24 34.4 28.6 33.6 Q27 27 34 20 Z" fill="#86B9F0" stroke="#1B1724" stroke-width="1" stroke-linejoin="round"/><path d="M17 16 Q32 5 47 16 L45 19.6 Q32 10.6 19 19.6 Z" fill="#FFFFFF" stroke="#1B1724" stroke-width="1" stroke-linejoin="round"/><path d="M22 14.4 L24.6 16.6 M28.6 11.8 L30.4 14.4 M35 11.8 L36 14.6 M41.4 14 L42.4 16.6" stroke="#B4B4C6" stroke-width="0.8"/><g transform="translate(43.4 22.6)"><ellipse cx="0" cy="-2.4" rx="2" ry="1.6" fill="#FFFFFF" stroke="#1B1724" stroke-width="0.6" transform="rotate(0 0 -2.4)"/><ellipse cx="2.3" cy="-0.7" rx="2" ry="1.6" fill="#FFFFFF" stroke="#1B1724" stroke-width="0.6" transform="rotate(72 2.3 -0.7)"/><ellipse cx="1.4" cy="2" rx="2" ry="1.6" fill="#FFFFFF" stroke="#1B1724" stroke-width="0.6" transform="rotate(144 1.4 2)"/><ellipse cx="-1.4" cy="2" rx="2" ry="1.6" fill="#FFFFFF" stroke="#1B1724" stroke-width="0.6" transform="rotate(216 -1.4 2)"/><ellipse cx="-2.3" cy="-0.7" rx="2" ry="1.6" fill="#FFFFFF" stroke="#1B1724" stroke-width="0.6" transform="rotate(288 -2.3 -0.7)"/><circle cx="0" cy="0" r="1.1" fill="#C8507D"/></g>
</svg>