<svg xmlns="http://www.w3.org/2000/svg" viewBox="0 0 64 64" width="64" height="64">
<!-- Shaula (Re:Zero) chibi v3 - Break Time tarzindan esinlenen ozgun cizim (sistem-bakim) -->
<defs><linearGradient id="ishaula" x1="0" y1="0" x2="0" y2="1"><stop offset="0" stop-color="#1F7F49"/><stop offset="1" stop-color="#66D592"/></linearGradient></defs><path d="M13 31 Q10 47 15 60 L22 60 Q17 47 19 34 Z" fill="#2F2520" stroke="#1B1724" stroke-width="1" stroke-linejoin="round"/><path d="M51 31 Q54 47 49 60 L42 60 Q47 47 45 34 Z" fill="#2F2520" stroke="#1B1724" stroke-width="1" stroke-linejoin="round"/><ellipse cx="45" cy="23" rx="4.5" ry="3.7" fill="#2F2520" stroke="#7B6353" stroke-width="1"/><ellipse cx="49.6" cy="18.4" rx="4.2" ry="3.4" fill="#2F2520" stroke="#7B6353" stroke-width="1"/><ellipse cx="53.4" cy="13.8" rx="3.9" ry="3.2" fill="#2F2520" stroke="#7B6353" stroke-width="1"/><ellipse cx="54.6" cy="8.8" rx="3.6" ry="3.0" fill="#2F2520" stroke="#7B6353" stroke-width="1"/><ellipse cx="52.4" cy="4.8" rx="3.3" ry="2.7" fill="#2F2520" stroke="#7B6353" stroke-width="1"/><ellipse cx="48.2" cy="3.6" rx="3" ry="2.5" fill="#2F2520" stroke="#7B6353" stroke-width="1"/><path d="M46 2 L39.4 5.6 L45.6 6.4 Z" fill="#C9A24A" stroke="#1B1724" stroke-width="1" stroke-linejoin="round"/><path d="M12 64 Q13 52.6 24 51.6 L32 56.6 L40 51.6 Q51 52.6 52 64 Z" fill="#E0762A" stroke="#1B1724" stroke-width="1" stroke-linejoin="round"/><path d="M20 64 Q21 54.6 32 53.6 Q43 54.6 44 64 Z" fill="#141218" stroke="#1B1724" stroke-width="1" stroke-linejoin="round"/><path d="M29 54.2 L32 55.6 L35 54.2 L35 57 L32 55.6 L29 57 Z" fill="#E0762A" stroke="#1B1724" stroke-width="1" stroke-linejoin="round"/><path d="M25 53.2 Q32 58.6 39 53.2" stroke="#D9B45A" stroke-width="0.9" fill="none"/><ellipse cx="32" cy="36" rx="19" ry="17" fill="#FFEEE4" stroke="#1B1724" stroke-width="1"/><ellipse cx="19.4" cy="45" rx="3.2" ry="1.7" fill="#FF97B0" opacity="0.5"/><ellipse cx="44.6" cy="45" rx="3.2" ry="1.7" fill="#FF97B0" opacity="0.5"/><path d="M29.4 46.8 Q32 51.2 34.6 46.8 Z" fill="#9C3346" stroke="#7A2436" stroke-width="0.7"/><path d="M13 33 Q13 11 32 10 Q51 11 51 33 Q46 22 40 24 Q37 19 32 25 Q27 19 24 24 Q18 22 13 33 Z" fill="#2F2520" stroke="#1B1724" stroke-width="1" stroke-linejoin="round"/><path d="M22 24 L24.6 31 M32 24 L32 30.6 M42 24 L39.4 31" stroke="#7B6353" stroke-width="1.1" stroke-linecap="round"/><path d="M20 16 Q30 11 42 14" stroke="#FFFFFF" stroke-width="1.8" fill="none" opacity="0.45" stroke-linecap="round"/><path d="M18.400000000000002 38.4 Q23.6 42.0 28.8 38.4" stroke="#1B1724" stroke-width="2" fill="none" stroke-linecap="round"/><path d="M35.199999999999996 38.4 Q40.4 42.0 45.6 38.4" stroke="#1B1724" stroke-width="2" fill="none" stroke-linecap="round"/>
</svg>